HIERARCHY
ROOT newVegas:Hips
{
	OFFSET 0.000000 96.479958 0.000000
	CHANNELS 6 Xposition Yposition Zposition Xrotation Yrotation Zrotation
	JOINT newVegas:Pelvis
	{
		OFFSET 0.000000 0.000000 0.000000
		CHANNELS 3 Xrotation Yrotation Zrotation
		JOINT newVegas:LeftUpLeg
		{
			OFFSET 18.735201 -5.666702 -4.541200
			CHANNELS 3 Xrotation Yrotation Zrotation
			JOINT newVegas:LeftLeg
			{
				OFFSET -0.021200 -31.938179 0.493100
				CHANNELS 3 Xrotation Yrotation Zrotation
				JOINT newVegas:LeftFoot
				{
					OFFSET 0.021200 -31.938179 -4.336299
					CHANNELS 3 Xrotation Yrotation Zrotation
					JOINT newVegas:LeftToeBase
					{
						OFFSET 0.943001 -26.722000 15.023500
						CHANNELS 3 Xrotation Yrotation Zrotation
						End Site
						{
							OFFSET 0.000000 30.670183 0.000000
						}
					}
				}
				JOINT newVegas:Left_PantLeg
				{
					OFFSET 0.663870 -9.044666 -1.108900
					CHANNELS 3 Xrotation Yrotation Zrotation
					End Site
					{
						OFFSET 1.415995 20.635357 0.000000
					}
				}
			}
		}
		JOINT newVegas:RightUpLeg
		{
			OFFSET -18.735201 -5.666702 -4.541200
			CHANNELS 3 Xrotation Yrotation Zrotation
			JOINT newVegas:RightLeg
			{
				OFFSET 0.018946 -31.938133 0.493100
				CHANNELS 3 Xrotation Yrotation Zrotation
				JOINT newVegas:RightFoot
				{
					OFFSET -0.018946 -31.938126 -4.336299
					CHANNELS 3 Xrotation Yrotation Zrotation
					JOINT newVegas:RightToeBase
					{
						OFFSET -0.943001 -26.722004 15.023500
						CHANNELS 3 Xrotation Yrotation Zrotation
						End Site
						{
							OFFSET 0.000000 30.670187 0.000000
						}
					}
				}
				JOINT newVegas:Right_PantLeg
				{
					OFFSET -0.661674 -9.044716 -1.108900
					CHANNELS 3 Xrotation Yrotation Zrotation
					End Site
					{
						OFFSET -1.415958 20.635269 0.000000
					}
				}
			}
		}
	}
	JOINT newVegas:Spine
	{
		OFFSET 0.000000 10.199997 -0.299500
		CHANNELS 3 Xrotation Yrotation Zrotation
		JOINT newVegas:Spine1
		{
			OFFSET 0.000000 11.900002 -1.516600
			CHANNELS 3 Xrotation Yrotation Zrotation
			JOINT newVegas:Spine2
			{
				OFFSET 0.000000 13.600006 -2.842500
				CHANNELS 3 Xrotation Yrotation Zrotation
				JOINT newVegas:Neck
				{
					OFFSET 0.000000 9.624100 -2.890100
					CHANNELS 3 Xrotation Yrotation Zrotation
					JOINT newVegas:Head
					{
						OFFSET 0.000000 14.068802 -1.351900
						CHANNELS 3 Xrotation Yrotation Zrotation
						JOINT newVegas:Hair_Back
						{
							OFFSET 0.000000 3.231903 -17.524799
							CHANNELS 3 Xrotation Yrotation Zrotation
							End Site
							{
								OFFSET 0.000000 19.849884 0.000000
							}
						}
						JOINT newVegas:Hair_Front
						{
							OFFSET 0.000000 31.260406 4.573800
							CHANNELS 3 Xrotation Yrotation Zrotation
							JOINT newVegas:Hair_Front1
							{
								OFFSET 0.000000 2.284103 11.993300
								CHANNELS 3 Xrotation Yrotation Zrotation
								JOINT newVegas:Hair_Front2
								{
									OFFSET 0.000000 2.284103 11.993300
									CHANNELS 3 Xrotation Yrotation Zrotation
									End Site
									{
										OFFSET 0.000000 12.208862 0.000000
									}
								}
							}
						}
						JOINT newVegas:Jowel
						{
							OFFSET 0.000000 -7.458206 6.864100
							CHANNELS 3 Xrotation Yrotation Zrotation
							End Site
							{
								OFFSET 0.000000 19.849884 0.000000
							}
						}
					}
				}
				JOINT newVegas:LeftShoulder
				{
					OFFSET 15.263000 10.923401 -0.547700
					CHANNELS 3 Xrotation Yrotation Zrotation
					JOINT newVegas:LeftArm
					{
						OFFSET 25.438599 -2.830597 -13.032500
						CHANNELS 3 Xrotation Yrotation Zrotation
						JOINT newVegas:LeftForeArm
						{
							OFFSET 29.960503 0.000000 0.000000
							CHANNELS 3 Xrotation Yrotation Zrotation
							JOINT newVegas:LeftHand
							{
								OFFSET 27.849251 0.000000 0.000000
								CHANNELS 3 Xrotation Yrotation Zrotation
								JOINT newVegas:LeftHandThumb1
								{
									OFFSET 4.487587 -3.305161 6.305391
									CHANNELS 3 Xrotation Yrotation Zrotation
									JOINT newVegas:LeftHandThumb2
									{
										OFFSET 5.480453 -3.164139 3.164143
										CHANNELS 3 Xrotation Yrotation Zrotation
										JOINT newVegas:LeftHandThumb3
										{
											OFFSET 5.159721 -2.978973 2.978967
											CHANNELS 3 Xrotation Yrotation Zrotation
											End Site
											{
												OFFSET 2.494507 5.926697 1.738678
											}
										}
									}
								}
								JOINT newVegas:LeftHandIndex1
								{
									OFFSET 18.578728 -0.527832 5.208049
									CHANNELS 3 Xrotation Yrotation Zrotation
									JOINT newVegas:LeftHandIndex2
									{
										OFFSET 3.192009 0.000000 0.000000
										CHANNELS 3 Xrotation Yrotation Zrotation
										JOINT newVegas:LeftHandIndex3
										{
											OFFSET 3.835129 0.000000 0.000000
											CHANNELS 3 Xrotation Yrotation Zrotation
											End Site
											{
												OFFSET -0.034599 3.816971 0.371180
											}
										}
									}
								}
								JOINT newVegas:LeftHandMiddle1
								{
									OFFSET 18.476105 0.000000 0.000000
									CHANNELS 3 Xrotation Yrotation Zrotation
									JOINT newVegas:LeftHandMiddle2
									{
										OFFSET 3.324875 0.000000 0.000000
										CHANNELS 3 Xrotation Yrotation Zrotation
										JOINT newVegas:LeftHandMiddle3
										{
											OFFSET 4.596550 0.000000 0.000000
											CHANNELS 3 Xrotation Yrotation Zrotation
											End Site
											{
												OFFSET 0.057701 4.578827 0.399218
											}
										}
									}
								}
								JOINT newVegas:LeftHandRing1
								{
									OFFSET 17.732719 0.121887 -4.201567
									CHANNELS 3 Xrotation Yrotation Zrotation
									JOINT newVegas:LeftHandRing2
									{
										OFFSET 2.733170 0.000000 0.000000
										CHANNELS 3 Xrotation Yrotation Zrotation
										JOINT newVegas:LeftHandRing3
										{
											OFFSET 3.178268 0.000000 0.000000
											CHANNELS 3 Xrotation Yrotation Zrotation
											End Site
											{
												OFFSET 0.119102 3.170624 0.185394
											}
										}
									}
								}
								JOINT newVegas:LeftHandPinky1
								{
									OFFSET 15.989624 -0.606689 -7.535461
									CHANNELS 3 Xrotation Yrotation Zrotation
									JOINT newVegas:LeftHandPinky2
									{
										OFFSET 2.538986 0.000000 0.000000
										CHANNELS 3 Xrotation Yrotation Zrotation
										JOINT newVegas:LeftHandPinky3
										{
											OFFSET 2.593102 0.000000 0.000000
											CHANNELS 3 Xrotation Yrotation Zrotation
											End Site
											{
												OFFSET -0.150902 2.584198 0.152708
											}
										}
									}
								}
							}
							JOINT newVegas:Left_Sleeve
							{
								OFFSET 0.267448 -0.649796 0.577675
								CHANNELS 3 Xrotation Yrotation Zrotation
								End Site
								{
									OFFSET 0.000000 15.991241 0.000000
								}
							}
							JOINT newVegas:Left_CapeC
							{
								OFFSET 15.715958 -8.608795 -6.935905
								CHANNELS 3 Xrotation Yrotation Zrotation
								JOINT newVegas:Left_CapeC1
								{
									OFFSET 0.000000 -8.688499 0.000000
									CHANNELS 3 Xrotation Yrotation Zrotation
									End Site
									{
										OFFSET 0.000000 8.688499 0.000000
									}
								}
							}
						}
						JOINT newVegas:Left_CapeB
						{
							OFFSET 26.118385 -8.608795 -7.079235
							CHANNELS 3 Xrotation Yrotation Zrotation
							JOINT newVegas:Left_CapeB1
							{
								OFFSET 0.000000 -8.688499 0.000000
								CHANNELS 3 Xrotation Yrotation Zrotation
								End Site
								{
									OFFSET 0.000000 8.688499 0.000000
								}
							}
						}
						JOINT newVegas:Left_CapeA
						{
							OFFSET 5.115639 -8.608795 -10.395809
							CHANNELS 3 Xrotation Yrotation Zrotation
							JOINT newVegas:Left_CapeA1
							{
								OFFSET 0.000000 -8.688499 0.000000
								CHANNELS 3 Xrotation Yrotation Zrotation
								End Site
								{
									OFFSET 0.000000 8.688499 0.000000
								}
							}
						}
					}
				}
				JOINT newVegas:RightShoulder
				{
					OFFSET -15.263000 10.923401 -0.547700
					CHANNELS 3 Xrotation Yrotation Zrotation
					JOINT newVegas:RightArm
					{
						OFFSET -25.438599 -2.830597 -13.032500
						CHANNELS 3 Xrotation Yrotation Zrotation
						JOINT newVegas:RightForeArm
						{
							OFFSET -29.960503 0.000000 0.000000
							CHANNELS 3 Xrotation Yrotation Zrotation
							JOINT newVegas:RightHand
							{
								OFFSET -27.849251 0.000000 0.000000
								CHANNELS 3 Xrotation Yrotation Zrotation
								JOINT newVegas:RightHandThumb1
								{
									OFFSET -4.487587 -3.305161 6.305391
									CHANNELS 3 Xrotation Yrotation Zrotation
									JOINT newVegas:RightHandThumb2
									{
										OFFSET -5.480453 -3.164139 3.164143
										CHANNELS 3 Xrotation Yrotation Zrotation
										JOINT newVegas:RightHandThumb3
										{
											OFFSET -5.159721 -2.978973 2.978967
											CHANNELS 3 Xrotation Yrotation Zrotation
											End Site
											{
												OFFSET -2.494507 5.926697 1.738678
											}
										}
									}
								}
								JOINT newVegas:RightHandIndex1
								{
									OFFSET -18.578728 -0.527832 5.208049
									CHANNELS 3 Xrotation Yrotation Zrotation
									JOINT newVegas:RightHandIndex2
									{
										OFFSET -3.192009 0.000000 0.000000
										CHANNELS 3 Xrotation Yrotation Zrotation
										JOINT newVegas:RightHandIndex3
										{
											OFFSET -3.835129 0.000000 0.000000
											CHANNELS 3 Xrotation Yrotation Zrotation
											End Site
											{
												OFFSET 0.034599 3.816971 0.371180
											}
										}
									}
								}
								JOINT newVegas:RightHandMiddle1
								{
									OFFSET -18.476105 0.000000 0.000000
									CHANNELS 3 Xrotation Yrotation Zrotation
									JOINT newVegas:RightHandMiddle2
									{
										OFFSET -3.324875 0.000000 0.000000
										CHANNELS 3 Xrotation Yrotation Zrotation
										JOINT newVegas:RightHandMiddle3
										{
											OFFSET -4.596550 0.000000 0.000000
											CHANNELS 3 Xrotation Yrotation Zrotation
											End Site
											{
												OFFSET -0.057701 4.578827 0.399218
											}
										}
									}
								}
								JOINT newVegas:RightHandRing1
								{
									OFFSET -17.732719 0.121887 -4.201567
									CHANNELS 3 Xrotation Yrotation Zrotation
									JOINT newVegas:RightHandRing2
									{
										OFFSET -2.733170 0.000000 0.000000
										CHANNELS 3 Xrotation Yrotation Zrotation
										JOINT newVegas:RightHandRing3
										{
											OFFSET -3.178268 0.000000 0.000000
											CHANNELS 3 Xrotation Yrotation Zrotation
											End Site
											{
												OFFSET -0.119102 3.170624 0.185394
											}
										}
									}
								}
								JOINT newVegas:RightHandPinky1
								{
									OFFSET -15.989624 -0.606689 -7.535461
									CHANNELS 3 Xrotation Yrotation Zrotation
									JOINT newVegas:RightHandPinky2
									{
										OFFSET -2.538986 0.000000 0.000000
										CHANNELS 3 Xrotation Yrotation Zrotation
										JOINT newVegas:RightHandPinky3
										{
											OFFSET -2.593102 0.000000 0.000000
											CHANNELS 3 Xrotation Yrotation Zrotation
											End Site
											{
												OFFSET 0.150902 2.584198 0.152708
											}
										}
									}
								}
							}
							JOINT newVegas:Right_CapeC
							{
								OFFSET -15.715958 -8.608795 -6.935905
								CHANNELS 3 Xrotation Yrotation Zrotation
								JOINT newVegas:Right_CapeC1
								{
									OFFSET 0.000000 -8.688499 0.000000
									CHANNELS 3 Xrotation Yrotation Zrotation
									End Site
									{
										OFFSET 0.000000 8.688499 0.000000
									}
								}
							}
							JOINT newVegas:Right_Sleeve
							{
								OFFSET -0.267448 -0.649994 0.577675
								CHANNELS 3 Xrotation Yrotation Zrotation
								End Site
								{
									OFFSET 0.000000 15.991302 0.000000
								}
							}
						}
						JOINT newVegas:Right_CapeA
						{
							OFFSET -5.115540 -8.608795 -10.395824
							CHANNELS 3 Xrotation Yrotation Zrotation
							JOINT newVegas:Right_CapeA1
							{
								OFFSET 0.000000 -8.688499 0.000000
								CHANNELS 3 Xrotation Yrotation Zrotation
								End Site
								{
									OFFSET 0.000000 8.688499 0.000000
								}
							}
						}
						JOINT newVegas:Right_CapeB
						{
							OFFSET -26.118187 -8.608795 -7.079266
							CHANNELS 3 Xrotation Yrotation Zrotation
							JOINT newVegas:Right_CapeB1
							{
								OFFSET 0.000000 -8.688499 0.000000
								CHANNELS 3 Xrotation Yrotation Zrotation
								End Site
								{
									OFFSET 0.000000 8.688499 0.000000
								}
							}
						}
					}
				}
				JOINT newVegas:Left_Collar
				{
					OFFSET 18.625099 8.655502 8.828100
					CHANNELS 3 Xrotation Yrotation Zrotation
					JOINT newVegas:Left_Collar1
					{
						OFFSET 14.783401 10.540405 -1.259500
						CHANNELS 3 Xrotation Yrotation Zrotation
						End Site
						{
							OFFSET 0.000000 18.199875 0.000000
						}
					}
				}
				JOINT newVegas:Collar_Back
				{
					OFFSET 0.000000 15.630707 -20.132601
					CHANNELS 3 Xrotation Yrotation Zrotation
					End Site
					{
						OFFSET 0.000000 22.523010 0.000000
					}
				}
				JOINT newVegas:Left_Peck
				{
					OFFSET 17.239599 -5.132599 25.482599
					CHANNELS 3 Xrotation Yrotation Zrotation
					End Site
					{
						OFFSET 0.000000 22.523010 0.000000
					}
				}
				JOINT newVegas:Right_Peck
				{
					OFFSET -17.239599 -5.132202 25.482599
					CHANNELS 3 Xrotation Yrotation Zrotation
					End Site
					{
						OFFSET 0.000000 22.523010 0.000000
					}
				}
				JOINT newVegas:Right_Collar
				{
					OFFSET -18.625099 8.655792 8.828100
					CHANNELS 3 Xrotation Yrotation Zrotation
					JOINT newVegas:Right_Collar1
					{
						OFFSET -14.783401 10.539993 -1.259500
						CHANNELS 3 Xrotation Yrotation Zrotation
						End Site
						{
							OFFSET 0.000000 18.199631 0.000000
						}
					}
				}
			}
		}
		JOINT newVegas:Belly
		{
			OFFSET 0.000000 -6.540398 9.014299
			CHANNELS 3 Xrotation Yrotation Zrotation
			End Site
			{
				OFFSET 0.000000 11.566666 0.000000
			}
		}
	}
	JOINT newVegas:ElvisFacialAnim_Joint
	{
		OFFSET 1.000000 -95.330101 -8.825800
		CHANNELS 3 Xrotation Yrotation Zrotation
		End Site
		{
			OFFSET 0.000000 35.315800 0.000000
		}
	}
}
MOTION
Frames: 4
Frame Time: 0.033333
0.422974 77.515358 4.707561 13.740228 -22.860525 -11.180565 -0.000002 0.000000 -0.000001 -73.976338 -21.570052 24.168443 132.627370 -5.726179 -3.715894 37.033152 -11.020351 -9.816335 -0.000001 -0.000000 0.000000 0.000000 -0.000000 0.000001 -36.469611 -4.859597 17.514907 70.794023 -0.020199 2.161583 -18.646080 9.240396 -8.016420 -0.000002 0.000000 -0.000000 -0.000002 0.000000 -0.000000 5.224792 3.171893 2.967372 10.567109 5.980068 2.498737 10.567108 5.980064 2.498735 -0.769036 -0.448244 -0.778074 -0.769042 -0.448246 -0.778073 0.000000 -0.000000 -0.000001 -0.768963 -0.448234 -0.778077 -0.769107 -0.448251 -0.778070 -0.000002 -0.000000 -0.000000 0.000000 -0.000000 -0.000001 0.344375 2.030829 4.441743 2.894285 4.672383 -60.214593 0.011174 -58.806856 0.143735 62.847596 -15.778447 2.463371 -1.979894 -11.507325 -0.411200 0.239105 2.576882 2.039377 -0.000000 0.000002 -0.000001 5.661338 -2.854342 0.073355 0.329753 1.124815 -43.979161 0.000002 -0.000003 0.000003 0.828265 4.748505 -11.532539 -1.733457 -3.133298 -50.864808 -0.000000 0.000001 -0.000002 -17.817035 18.648809 -17.460409 -1.970987 -4.440817 -53.495930 -0.000003 -0.000001 0.000001 0.824267 25.353529 -32.630795 -2.609718 -8.141907 -52.243796 0.000005 -0.000003 -0.000001 0.000001 0.000001 -0.000002 0.000001 0.000001 -0.000002 0.000000 0.000002 -0.000002 -0.000001 -0.000003 -0.000003 -0.000001 -0.000003 -0.000003 -0.000001 -0.000003 -0.000003 -0.000002 -0.000005 -0.000002 0.817227 10.759169 -11.612771 -25.352417 6.118678 77.583422 -0.033568 108.463527 0.053552 38.748295 -2.580736 -18.858226 14.833381 10.195082 -2.365195 -1.202675 -0.203465 -2.193536 0.000001 -0.000005 -0.000003 -5.877714 -3.330503 2.913218 0.532336 -1.828207 38.598949 0.000001 -0.000003 -0.000004 -5.488303 -1.728147 19.845436 -0.840522 1.786140 40.098009 0.000001 0.000002 0.000003 -12.412114 -5.437294 26.327454 -1.291351 4.270260 37.763187 -0.000001 -0.000001 0.000002 -8.540148 3.460549 31.445392 -2.207799 9.105784 38.961506 -0.000001 0.000003 0.000000 0.000000 0.000000 0.000000 0.000001 0.000000 0.000000 0.000001 0.000000 0.000000 -0.000000 0.000002 0.000000 0.000000 0.000002 -0.000000 -0.000000 0.000002 0.000000 0.000000 0.000002 -0.000000 0.000002 -0.000001 0.000000 0.000002 -0.000001 0.000000 0.000002 -0.000001 0.000000 0.000002 -0.000001 0.000000 0.000002 -0.000001 0.000000 0.000002 -0.000001 0.000000 0.000002 -0.000001 0.000000 0.000001 0.000000 -0.000000 -0.000002 0.000000 -0.000001 
-1.261564 79.942055 17.916691 11.658844 -18.207481 -10.584958 -0.000001 -0.000001 -0.000000 -98.417453 -13.671151 17.668864 136.307531 -1.818014 -2.029301 30.712898 -13.430728 8.924925 -0.000000 0.000000 -0.000000 0.000004 -0.000000 -0.000000 -14.758700 -3.984446 14.448287 54.038264 -1.913357 1.408553 -20.842201 11.459128 -6.294269 0.000001 -0.000000 -0.000000 -0.000000 -0.000001 -0.000001 4.702609 3.283623 1.805109 9.386348 6.420949 2.632056 9.386370 6.420945 2.632052 -0.821276 -1.052972 -0.332720 -0.821290 -1.052973 -0.332719 0.000001 0.000000 0.000000 -0.821290 -1.052973 -0.332719 -0.821082 -1.052960 -0.332718 -0.000002 -0.000000 0.000000 0.000001 0.000000 0.000000 0.329428 4.407516 3.723567 12.927903 0.044519 -58.959416 -0.031939 -55.500311 0.106519 55.433095 -9.712154 2.856539 -4.377313 -7.649365 -2.230446 0.240206 2.578015 2.039755 0.000000 0.000000 -0.000001 5.604891 -2.848262 -0.055472 0.327553 1.123063 -43.808584 0.000000 -0.000002 0.000002 0.813882 4.695693 -11.681585 -1.717578 -3.120233 -50.612327 0.000000 -0.000001 0.000002 -17.668670 18.500201 -17.517909 -1.946166 -4.422503 -53.132789 0.000001 -0.000002 0.000002 0.714109 25.173262 -32.415002 -2.591386 -8.137130 -51.922582 0.000002 -0.000004 0.000004 -0.000000 -0.000000 0.000000 -0.000000 -0.000000 0.000000 -0.000001 0.000000 0.000000 0.000000 0.000001 -0.000004 0.000000 -0.000000 -0.000004 0.000000 0.000001 -0.000004 -0.000001 -0.000001 -0.000004 -0.179206 8.153089 -7.613538 -28.034108 7.336298 68.887471 -0.084489 104.915654 0.090568 41.433990 -2.273634 -19.031982 14.775214 10.238332 -2.146613 -1.195615 -0.201526 -2.185525 0.000001 -0.000002 0.000001 -5.805827 -3.360545 3.090629 0.531127 -1.826969 38.552740 -0.000002 -0.000001 -0.000000 -5.430587 -1.736456 19.845468 -0.834717 1.779199 39.951627 0.000001 -0.000001 0.000000 -12.276334 -5.396044 26.317699 -1.285422 4.262660 37.673797 -0.000001 0.000001 0.000001 -8.452906 3.418870 31.277834 -2.208789 9.107061 38.970918 -0.000001 -0.000000 -0.000000 -0.000001 0.000000 -0.000000 -0.000000 -0.000001 -0.000000 -0.000001 0.000000 -0.000001 0.000001 0.000000 -0.000002 0.000002 0.000000 0.000000 0.000001 0.000000 -0.000002 0.000002 -0.000001 0.000000 -0.000000 -0.000000 -0.000000 -0.000000 -0.000000 -0.000000 -0.000000 -0.000000 -0.000000 -0.000000 -0.000000 -0.000000 -0.000000 -0.000000 -0.000000 -0.000000 -0.000000 -0.000000 -0.000000 -0.000000 -0.000000 -0.000000 0.000001 -0.000001 -0.000001 -0.000001 -0.000000 
-1.568154 81.759262 29.715321 9.772047 -13.000868 -9.770921 -0.000001 0.000000 0.000001 -98.948623 -4.629002 14.656392 123.519491 -0.007600 -2.650298 13.484656 -12.719892 18.319462 0.000002 0.000001 -0.000001 0.000001 0.000000 -0.000000 6.322573 -3.053347 11.983020 30.584897 -3.509500 0.304066 -9.014044 12.764403 -4.702282 -0.000000 0.000000 -0.000000 -0.000001 0.000000 -0.000002 4.005461 3.177063 1.091734 7.914242 6.450643 2.606549 7.914242 6.450639 2.606548 -0.740885 -1.573700 0.093017 -0.740882 -1.573702 0.093017 -0.000003 0.000000 -0.000000 -0.740878 -1.573704 0.093018 -0.740784 -1.573700 0.093020 0.000001 0.000000 0.000000 -0.000003 0.000000 0.000000 0.132445 5.868309 3.794418 24.398809 -4.671176 -56.061680 -0.057287 -57.792150 0.092212 44.197659 -3.626532 5.583882 -5.621565 -5.659436 -2.788037 0.250685 2.598030 2.041492 0.000000 -0.000001 -0.000003 5.562687 -2.820036 0.144405 0.322095 1.118519 -43.382196 0.000002 -0.000002 0.000001 0.786802 4.672027 -11.577819 -1.686422 -3.094281 -50.114819 -0.000001 0.000000 0.000003 -17.578130 18.310113 -17.317791 -1.904919 -4.391462 -52.524534 0.000001 -0.000001 0.000000 0.562988 25.012059 -31.939006 -2.562310 -8.135890 -51.345937 -0.000003 -0.000003 -0.000004 0.000001 0.000000 0.000001 0.000001 0.000000 0.000001 0.000000 0.000000 0.000001 0.000001 0.000000 0.000002 0.000001 -0.000001 0.000002 0.000001 0.000000 0.000002 0.000000 -0.000002 0.000002 -0.660333 5.252004 -4.782144 -22.508130 10.803102 62.181100 -0.127617 103.195921 0.115529 38.848634 -0.890943 -19.901588 14.723916 10.279167 -1.916772 -1.188580 -0.199560 -2.177456 0.000000 -0.000004 0.000001 -5.733131 -3.399365 3.267669 0.530310 -1.826143 38.522977 0.000000 -0.000001 0.000001 -5.371521 -1.748503 19.846035 -0.829512 1.772962 39.820652 0.000002 -0.000001 0.000001 -12.143853 -5.347168 26.304739 -1.280554 4.256359 37.599713 -0.000000 0.000001 -0.000001 -8.375175 3.395653 31.105740 -2.211507 9.110408 38.996149 -0.000000 0.000002 -0.000000 -0.000000 -0.000001 -0.000002 -0.000000 -0.000001 -0.000002 -0.000000 -0.000001 -0.000004 -0.000001 0.000001 -0.000001 -0.000000 0.000001 -0.000001 -0.000001 0.000001 -0.000001 -0.000001 0.000001 -0.000002 0.000003 0.000000 0.000000 0.000003 0.000000 0.000000 0.000003 0.000000 0.000000 0.000003 0.000000 0.000000 0.000003 0.000000 0.000000 0.000003 0.000000 0.000000 0.000003 0.000000 0.000000 -0.000000 0.000000 0.000000 -0.000001 0.000000 0.000001 
-1.453326 83.398201 42.380894 7.672383 -7.931120 -9.272021 -0.000000 0.000000 0.000000 -87.638424 -2.526112 10.541845 99.111837 -1.237772 -2.387556 -4.234882 -8.003996 15.475662 -0.000001 0.000001 0.000000 0.000000 0.000000 0.000000 19.450142 -0.699329 10.043576 18.724807 -5.478422 -0.604675 -0.511974 12.936790 -0.647100 0.000002 0.000000 0.000000 -0.000003 -0.000001 -0.000000 3.279825 3.089590 0.882578 6.449407 6.273834 2.527248 6.449413 6.273836 2.527251 -0.625178 -1.978409 0.551805 -0.625190 -1.978409 0.551804 -0.000001 -0.000000 0.000000 -0.625120 -1.978408 0.551807 -0.625245 -1.978413 0.551804 -0.000001 0.000000 0.000000 -0.000001 -0.000000 0.000000 -0.134720 6.015295 4.374379 36.333348 -8.511596 -53.143421 -0.073762 -64.463428 0.089428 31.325338 1.072192 9.449369 -6.746606 -3.911806 -3.371866 0.262849 2.621467 2.043382 0.000002 -0.000002 -0.000003 5.535731 -2.768449 0.736557 0.312766 1.110456 -42.642374 0.000002 -0.000002 0.000002 0.745989 4.683159 -11.162309 -1.636247 -3.051688 -49.307563 0.000001 0.000000 0.000001 -17.550084 18.073234 -16.799783 -1.843306 -4.343677 -51.606099 0.000002 -0.000002 0.000000 0.367062 24.876111 -31.138518 -2.518027 -8.137726 -50.453880 -0.000000 -0.000007 0.000002 -0.000000 0.000000 0.000002 -0.000000 0.000000 0.000002 -0.000001 0.000000 0.000002 -0.000003 -0.000001 0.000004 -0.000003 -0.000002 0.000004 -0.000003 -0.000001 0.000004 -0.000004 -0.000003 0.000005 -0.804026 2.331064 -2.207289 -11.170273 15.673713 56.187247 -0.173509 102.188154 0.140144 33.240574 1.148565 -19.809275 14.675095 10.319180 -1.683051 -1.181519 -0.197643 -2.169268 0.000001 -0.000006 -0.000001 -5.660041 -3.440839 3.444524 0.529693 -1.825459 38.498675 -0.000003 -0.000000 -0.000002 -5.312004 -1.761821 19.847582 -0.824523 1.766979 39.694826 -0.000002 -0.000001 -0.000004 -12.012419 -5.295565 26.289844 -1.276025 4.250478 37.530766 -0.000004 -0.000003 -0.000000 -8.299839 3.378875 30.932079 -2.214823 9.114444 39.026690 0.000002 -0.000000 -0.000000 -0.000000 -0.000000 0.000000 0.000000 0.000000 0.000001 -0.000000 0.000000 0.000000 0.000000 -0.000001 -0.000002 0.000001 -0.000002 -0.000004 0.000000 -0.000001 -0.000002 0.000001 -0.000002 -0.000004 -0.000000 -0.000000 0.000000 -0.000000 -0.000000 0.000000 -0.000000 -0.000000 0.000000 -0.000000 -0.000000 0.000000 -0.000000 -0.000000 0.000000 -0.000000 -0.000000 0.000000 -0.000000 -0.000000 0.000000 -0.000000 0.000000 0.000000 -0.000000 0.000000 0.000000 
